<?xml version="1.0" encoding="UTF-8" standalone="no"?>
<!DOCTYPE svg PUBLIC "-//W3C//DTD SVG 1.1//EN" "http://www.w3.org/Graphics/SVG/1.1/DTD/svg11.dtd">
<svg width="100%" height="100%" viewBox="0 0 1024 1024" version="1.1" xmlns="http://www.w3.org/2000/svg" xmlns:xlink="http://www.w3.org/1999/xlink" xml:space="preserve" xmlns:serif="http://www.serif.com/" style="fill-rule:evenodd;clip-rule:evenodd;stroke-linejoin:round;stroke-miterlimit:2;">
    <g transform="matrix(-5.782304,-5.782304,5.782304,-5.782304,2355.730958,5405.930582)">
        <path d="M590.223,264.621C590.223,262.293 589.299,260.06 587.652,258.414C586.006,256.768 583.774,255.843 581.446,255.843L532.922,255.843C530.594,255.843 528.361,254.918 526.715,253.272C525.069,251.626 524.144,249.393 524.144,247.065L524.144,236.712C524.144,234.384 525.069,232.152 526.715,230.506C528.361,228.859 530.594,227.935 532.922,227.935L609.328,227.935C614.175,227.935 618.104,231.863 618.106,236.71C618.111,254.624 618.124,295.222 618.129,313.142C618.13,315.47 617.205,317.704 615.559,319.35C613.913,320.997 611.68,321.922 609.351,321.922L599.001,321.922C596.673,321.922 594.44,320.997 592.794,319.351C591.148,317.705 590.223,315.472 590.223,313.144L590.223,264.621Z" style="fill:white;"/>
    </g>
</svg>
