<?xml version="1.0" encoding="UTF-8" standalone="no"?>
<!DOCTYPE svg PUBLIC "-//W3C//DTD SVG 1.1//EN" "http://www.w3.org/Graphics/SVG/1.1/DTD/svg11.dtd">
<svg width="100%" height="100%" viewBox="0 0 38 38" version="1.1" xmlns="http://www.w3.org/2000/svg" xmlns:xlink="http://www.w3.org/1999/xlink" xml:space="preserve" xmlns:serif="http://www.serif.com/" style="fill-rule:evenodd;clip-rule:evenodd;stroke-linejoin:round;stroke-miterlimit:2;">
    <g transform="matrix(0.51507,0,0,0.51507,-71.129551,-489.239632)">
        <g transform="matrix(2.60046,0,0,2.60046,139.293368,948.316899)">
            <path d="M24.15,19.1C24.917,19.867 25.3,20.817 25.3,21.95C25.3,23.083 24.917,24.033 24.15,24.8C23.383,25.567 22.433,25.95 21.3,25.95C20.167,25.95 19.217,25.567 18.45,24.8L14.2,20.55C12.3,22.45 10.417,22.467 8.55,20.6L19.85,9.3C21.683,11.133 21.7,12.983 19.9,14.85L24.15,19.1ZM14.15,3.65L18.4,7.85L7.1,19.15L2.85,14.95C1.917,13.983 1.917,13.033 2.85,12.1L7.95,7L8.15,7.1L10.5,7.55L11.05,7.5L11.15,6.9L10.7,4.55L10.6,4.35L11.35,3.6L14.15,3.65Z" style="fill:rgb(191,131,64);stroke:rgb(191,131,64);stroke-width:3.73px;"/>
        </g>
        <g transform="matrix(0.451467,0,0,0.451467,174.987191,986.738696)">
            <g transform="matrix(1,0,0,1,-66.666667,-66.666667)">
                <g transform="matrix(4.166667,0,0,4.166667,0,0)">
                    <g transform="matrix(1.382289,0,0,1.382289,-2.971922,-4.423326)">
                        <path d="M22.7,20.55C22.3,20.15 21.817,19.967 21.25,20C20.717,20 20.25,20.2 19.85,20.6C19.45,21 19.25,21.467 19.25,22C19.25,22.533 19.45,23 19.85,23.4C20.25,23.8 20.717,24 21.25,24C21.783,24 22.25,23.8 22.65,23.4C23.05,23 23.25,22.533 23.25,22C23.283,21.433 23.1,20.95 22.7,20.55M24.15,19.1C24.917,19.867 25.3,20.817 25.3,21.95C25.3,23.083 24.917,24.033 24.15,24.8C23.383,25.567 22.433,25.95 21.3,25.95C20.167,25.95 19.217,25.567 18.45,24.8L14.2,20.55C12.3,22.45 10.417,22.467 8.55,20.6L19.85,9.3C21.683,11.133 21.7,12.983 19.9,14.85L24.15,19.1" style="fill:white;fill-rule:nonzero;"/>
                    </g>
                    <g transform="matrix(1.382289,0,0,1.382289,-2.971922,-4.423326)">
                        <path d="M14.15,3.65L18.4,7.85L7.1,19.15L2.85,14.95C1.917,13.983 1.917,13.033 2.85,12.1L7.95,7L8.15,7.1L10.5,7.55L11.05,7.5L11.15,6.9L10.7,4.55L10.6,4.35L11.35,3.6L14.15,3.65" style="fill:white;fill-rule:nonzero;"/>
                    </g>
                </g>
            </g>
        </g>
    </g>
</svg>
