<?xml version="1.0" encoding="UTF-8" standalone="no"?>
<!DOCTYPE svg PUBLIC "-//W3C//DTD SVG 1.1//EN" "http://www.w3.org/Graphics/SVG/1.1/DTD/svg11.dtd">
<svg width="100%" height="100%" viewBox="0 0 64 64" version="1.1" xmlns="http://www.w3.org/2000/svg" xmlns:xlink="http://www.w3.org/1999/xlink" xml:space="preserve" xmlns:serif="http://www.serif.com/" style="fill-rule:evenodd;clip-rule:evenodd;stroke-linejoin:round;stroke-miterlimit:2;">
    <g transform="matrix(0.808309,0,0,0.808309,-109.32383,-765.479086)">
        <g transform="matrix(0.971051,0,0,0.971051,174.943749,986.727628)">
            <path d="M30.7,-3.6L21.3,25.65C20.867,26.95 20.1,28 19,28.8C17.867,29.6 16.633,30 15.3,30L-15.25,30C-16.617,30 -17.85,29.6 -18.95,28.8C-20.05,28 -20.817,26.95 -21.25,25.65L-30.65,-3.6C-31.083,-4.933 -31.083,-6.25 -30.65,-7.55C-30.217,-8.883 -29.467,-9.933 -28.4,-10.7L-3.7,-28.8C-2.533,-29.6 -1.267,-30 0.1,-30C1.4,-30 2.617,-29.6 3.75,-28.8L28.45,-10.7C29.517,-9.933 30.267,-8.883 30.7,-7.55C31.133,-6.25 31.133,-4.933 30.7,-3.6" style="fill:none;fill-rule:nonzero;stroke:rgb(82,136,137);stroke-width:15.93px;"/>
        </g>
        <g transform="matrix(1.237151,0,0,1.237151,135.250122,947.013474)">
            <path d="M32.12,5.213L4.574,25.882L15.076,57.469L47.996,58.136L59.747,27.466L32.12,5.213Z" style="fill:rgb(82,136,137);"/>
        </g>
        <g transform="matrix(0.014108,0,0,0.014108,174.987191,986.738696)">
            <g transform="matrix(1,0,0,1,-2133.333333,-2133.333333)">
                <g transform="matrix(68.817204,0,0,68.817204,2131.612904,2133.333333)">
                    <path d="M30.7,-3.6L21.3,25.65C20.867,26.95 20.1,28 19,28.8C17.867,29.6 16.633,30 15.3,30L-15.25,30C-16.617,30 -17.85,29.6 -18.95,28.8C-20.05,28 -20.817,26.95 -21.25,25.65L-30.65,-3.6C-31.083,-4.933 -31.083,-6.25 -30.65,-7.55C-30.217,-8.883 -29.467,-9.933 -28.4,-10.7L-3.7,-28.8C-2.533,-29.6 -1.267,-30 0.1,-30C1.4,-30 2.617,-29.6 3.75,-28.8L28.45,-10.7C29.517,-9.933 30.267,-8.883 30.7,-7.55C31.133,-6.25 31.133,-4.933 30.7,-3.6M-4.8,3.05L-4.9,3.25C-5.367,4.517 -5.367,5.717 -4.9,6.85L-4.85,7L-4.6,7.5C-5,8.133 -5.2,8.967 -5.2,10L-5.2,12C-5.2,14.667 -3.867,16 -1.2,16L0.8,16C3.467,16 4.8,14.667 4.8,12L4.8,10C4.8,8.933 4.6,8.083 4.2,7.45L5,6.55L4.95,6.65C7.65,3.917 8.933,1.367 8.8,-1C8.8,-3.167 8.167,-5.067 6.9,-6.7L6.85,-6.75C5.15,-8.917 2.8,-10 -0.2,-10C-3.867,-10 -6.5,-8.433 -8.1,-5.3C-8.833,-4.033 -8.933,-2.683 -8.4,-1.25L-8.35,-1.1C-7.917,-0.033 -7.167,0.8 -6.1,1.4L-4.25,2.05L-4.8,3.05M2.8,4.5L1.6,5.8C1.333,6.6 0.733,7 -0.2,7L-1,6.9C-1.533,6.7 -1.9,6.333 -2.1,5.8C-2.3,5.333 -2.3,4.833 -2.1,4.3C-1.7,3.433 -1,2.567 0,1.7C1.2,0.367 1.8,-0.533 1.8,-1C1.667,-2.333 1,-3 -0.2,-3C-0.933,-3 -1.533,-2.7 -2,-2.1C-2.267,-1.633 -2.633,-1.3 -3.1,-1.1L-4.6,-1.2C-5.067,-1.467 -5.4,-1.833 -5.6,-2.3C-5.8,-2.833 -5.767,-3.333 -5.5,-3.8C-4.433,-5.933 -2.667,-7 -0.2,-7C1.8,-7 3.367,-6.3 4.5,-4.9C5.367,-3.767 5.8,-2.467 5.8,-1C5.8,0.667 4.8,2.5 2.8,4.5M1.8,12C1.8,12.667 1.467,13 0.8,13L-1.2,13C-1.867,13 -2.2,12.667 -2.2,12L-2.2,10C-2.2,9.333 -1.867,9 -1.2,9L0.8,9C1.467,9 1.8,9.333 1.8,10L1.8,12" style="fill:white;fill-rule:nonzero;"/>
                </g>
            </g>
        </g>
    </g>
</svg>
