<?xml version="1.0" encoding="UTF-8" standalone="no"?>
<!DOCTYPE svg PUBLIC "-//W3C//DTD SVG 1.1//EN" "http://www.w3.org/Graphics/SVG/1.1/DTD/svg11.dtd">
<svg width="100%" height="100%" viewBox="0 0 64 64" version="1.1" xmlns="http://www.w3.org/2000/svg" xmlns:xlink="http://www.w3.org/1999/xlink" xml:space="preserve" xmlns:serif="http://www.serif.com/" style="fill-rule:evenodd;clip-rule:evenodd;stroke-linecap:round;stroke-linejoin:round;stroke-miterlimit:1.5;">
    <g transform="matrix(0.808309,0,0,0.808309,-109.348042,-765.479086)">
        <g transform="matrix(0.600672,0,0,0.600672,-717.2844,501.873088)">
            <path d="M1444.452,815.398L1444.452,825.526L1442.688,825.526C1440.741,825.526 1438.874,824.753 1437.498,823.376C1436.121,822 1435.348,820.133 1435.348,818.186L1435.348,798.781C1435.348,796.834 1436.121,794.967 1437.498,793.59C1438.874,792.214 1440.741,791.44 1442.688,791.44L1444.452,791.44L1444.452,801.568L1449.504,801.568L1449.505,793.757C1449.505,792.347 1450.065,790.994 1451.063,789.997L1458.093,782.966C1459.091,781.968 1460.444,781.408 1461.855,781.408L1467.204,781.408L1467.204,776.452L1461.414,776.452C1460.44,776.452 1459.651,775.662 1459.651,774.689C1459.651,770.635 1462.938,767.348 1466.992,767.348L1481.247,767.348C1485.297,767.348 1488.582,770.629 1488.587,774.679L1488.587,774.688C1488.582,775.664 1487.79,776.452 1486.814,776.452L1481.034,776.452L1481.034,781.408L1486.384,781.408C1487.794,781.408 1489.147,781.968 1490.145,782.966L1496.317,789.138C1497.315,790.136 1498.668,790.696 1500.079,790.696L1512.927,790.696C1515.864,790.696 1518.246,793.078 1518.246,796.015L1518.246,811.696L1523.521,811.696L1523.521,798.739C1523.521,797.986 1523.82,797.263 1524.353,796.731C1524.886,796.198 1525.608,795.899 1526.361,795.899L1526.367,795.899C1531.478,795.899 1535.622,800.042 1535.622,805.154L1535.622,832.604C1535.622,837.716 1531.478,841.859 1526.367,841.859L1526.361,841.859C1525.608,841.859 1524.886,841.56 1524.353,841.027C1523.82,840.495 1523.521,839.772 1523.521,839.019L1523.521,825.526L1518.246,825.526L1518.246,841.743C1518.246,843.153 1517.685,844.506 1516.688,845.504C1515.69,846.501 1514.337,847.062 1512.927,847.062L1474.709,847.062C1473.341,847.062 1472.026,846.535 1471.037,845.59L1451.147,826.603C1450.095,825.599 1449.5,824.208 1449.5,822.754L1449.501,815.398L1444.452,815.398Z" style="fill:none;stroke:rgb(128,163,179);stroke-width:25.75px;"/>
        </g>
        <g transform="matrix(0.600672,0,0,0.600672,-717.2844,501.873088)">
            <path d="M1444.452,815.398L1444.452,825.526L1442.688,825.526C1440.741,825.526 1438.874,824.753 1437.498,823.376C1436.121,822 1435.348,820.133 1435.348,818.186L1435.348,798.781C1435.348,796.834 1436.121,794.967 1437.498,793.59C1438.874,792.214 1440.741,791.44 1442.688,791.44L1444.452,791.44L1444.452,801.568L1449.504,801.568L1449.505,793.757C1449.505,792.347 1450.065,790.994 1451.063,789.997L1458.093,782.966C1459.091,781.968 1460.444,781.408 1461.855,781.408L1467.204,781.408L1467.204,776.452L1461.414,776.452C1460.44,776.452 1459.651,775.662 1459.651,774.689C1459.651,770.635 1462.938,767.348 1466.992,767.348L1481.247,767.348C1485.297,767.348 1488.582,770.629 1488.587,774.679L1488.587,774.688C1488.582,775.664 1487.79,776.452 1486.814,776.452L1481.034,776.452L1481.034,781.408L1486.384,781.408C1487.794,781.408 1489.147,781.968 1490.145,782.966L1496.317,789.138C1497.315,790.136 1498.668,790.696 1500.079,790.696L1512.927,790.696C1515.864,790.696 1518.246,793.078 1518.246,796.015L1518.246,811.696L1523.521,811.696L1523.521,798.739C1523.521,797.986 1523.82,797.263 1524.353,796.731C1524.886,796.198 1525.608,795.899 1526.361,795.899L1526.367,795.899C1531.478,795.899 1535.622,800.042 1535.622,805.154L1535.622,832.604C1535.622,837.716 1531.478,841.859 1526.367,841.859L1526.361,841.859C1525.608,841.859 1524.886,841.56 1524.353,841.027C1523.82,840.495 1523.521,839.772 1523.521,839.019L1523.521,825.526L1518.246,825.526L1518.246,841.743C1518.246,843.153 1517.685,844.506 1516.688,845.504C1515.69,846.501 1514.337,847.062 1512.927,847.062L1474.709,847.062C1473.341,847.062 1472.026,846.535 1471.037,845.59L1451.147,826.603C1450.095,825.599 1449.5,824.208 1449.5,822.754L1449.501,815.398L1444.452,815.398Z" style="fill:white;"/>
        </g>
    </g>
</svg>
