<?xml version="1.0" encoding="UTF-8" standalone="no"?>
<!DOCTYPE svg PUBLIC "-//W3C//DTD SVG 1.1//EN" "http://www.w3.org/Graphics/SVG/1.1/DTD/svg11.dtd">
<svg width="100%" height="100%" viewBox="0 0 38 38" version="1.1" xmlns="http://www.w3.org/2000/svg" xmlns:xlink="http://www.w3.org/1999/xlink" xml:space="preserve" xmlns:serif="http://www.serif.com/" style="fill-rule:evenodd;clip-rule:evenodd;stroke-linejoin:round;stroke-miterlimit:2;">
    <g transform="matrix(0.51507,0,0,0.51507,-71.140002,-489.233918)">
        <g transform="matrix(1.074111,0,0,1.074111,174.980109,986.699952)">
            <path d="M25.7,-11.5L22.95,-1.05C24.617,-0.383 25.95,0.817 26.95,2.55C28.083,4.483 28.35,6.567 27.75,8.8C27.15,10.967 25.883,12.65 23.95,13.85L23.8,13.95C22.133,14.85 20.417,15.167 18.65,14.9L15.85,25.35C15.583,26.317 15.05,27.05 14.25,27.55C13.383,28.017 12.467,28.133 11.5,27.9L2.3,25.4C1.333,25.167 0.617,24.617 0.15,23.75C-0.383,22.917 -0.517,22.017 -0.25,21.05C0.183,19.483 0,17.983 -0.8,16.55C-1.667,15.117 -2.883,14.183 -4.45,13.75C-6.017,13.317 -7.5,13.517 -8.9,14.35C-10.367,15.183 -11.317,16.383 -11.75,17.95C-12.017,18.917 -12.567,19.65 -13.4,20.15C-14.233,20.617 -15.133,20.733 -16.1,20.5L-25.3,18C-26.267,17.767 -27,17.217 -27.5,16.35C-28,15.517 -28.117,14.617 -27.85,13.65L-25.4,4.45C-25.133,3.483 -24.583,2.75 -23.75,2.25C-22.883,1.783 -21.967,1.667 -21,1.9C-19.433,2.333 -17.917,2.133 -16.45,1.3C-15.05,0.467 -14.133,-0.733 -13.7,-2.3C-13.3,-3.9 -13.5,-5.4 -14.3,-6.8C-15.133,-8.267 -16.333,-9.217 -17.9,-9.65C-18.867,-9.883 -19.6,-10.417 -20.1,-11.25C-20.6,-12.117 -20.717,-13.033 -20.45,-14L-18,-23.2C-17.733,-24.167 -17.183,-24.883 -16.35,-25.35C-15.483,-25.85 -14.567,-25.983 -13.6,-25.75L-3.15,-22.95C-2.483,-24.55 -1.333,-25.817 0.3,-26.75L0.4,-26.85C2.367,-28.017 4.45,-28.3 6.65,-27.7C8.883,-27.1 10.583,-25.783 11.75,-23.75C12.683,-22.15 13.033,-20.45 12.8,-18.65L23.2,-15.85C24.167,-15.617 24.9,-15.05 25.4,-14.15C25.867,-13.35 25.967,-12.467 25.7,-11.5" style="fill:none;fill-rule:nonzero;stroke:rgb(113,40,62);stroke-width:9.04px;"/>
        </g>
        <g transform="matrix(0.014108,0,0,0.014108,174.987191,986.738696)">
            <g transform="matrix(1,0,0,1,-2133.333333,-2133.333333)">
                <clipPath id="_clip1">
                    <rect x="0" y="0" width="4266.667" height="4266.667"/>
                </clipPath>
                <g clip-path="url(#_clip1)">
                    <g transform="matrix(76.1216,0,0,76.1216,2130.577425,2132.914425)">
                        <path d="M25.7,-11.5L22.95,-1.05C24.617,-0.383 25.95,0.817 26.95,2.55C28.083,4.483 28.35,6.567 27.75,8.8C27.15,10.967 25.883,12.65 23.95,13.85L23.8,13.95C22.133,14.85 20.417,15.167 18.65,14.9L15.85,25.35C15.583,26.317 15.05,27.05 14.25,27.55C13.383,28.017 12.467,28.133 11.5,27.9L2.3,25.4C1.333,25.167 0.617,24.617 0.15,23.75C-0.383,22.917 -0.517,22.017 -0.25,21.05C0.183,19.483 0,17.983 -0.8,16.55C-1.667,15.117 -2.883,14.183 -4.45,13.75C-6.017,13.317 -7.5,13.517 -8.9,14.35C-10.367,15.183 -11.317,16.383 -11.75,17.95C-12.017,18.917 -12.567,19.65 -13.4,20.15C-14.233,20.617 -15.133,20.733 -16.1,20.5L-25.3,18C-26.267,17.767 -27,17.217 -27.5,16.35C-28,15.517 -28.117,14.617 -27.85,13.65L-25.4,4.45C-25.133,3.483 -24.583,2.75 -23.75,2.25C-22.883,1.783 -21.967,1.667 -21,1.9C-19.433,2.333 -17.917,2.133 -16.45,1.3C-15.05,0.467 -14.133,-0.733 -13.7,-2.3C-13.3,-3.9 -13.5,-5.4 -14.3,-6.8C-15.133,-8.267 -16.333,-9.217 -17.9,-9.65C-18.867,-9.883 -19.6,-10.417 -20.1,-11.25C-20.6,-12.117 -20.717,-13.033 -20.45,-14L-18,-23.2C-17.733,-24.167 -17.183,-24.883 -16.35,-25.35C-15.483,-25.85 -14.567,-25.983 -13.6,-25.75L-3.15,-22.95C-2.483,-24.55 -1.333,-25.817 0.3,-26.75L0.4,-26.85C2.367,-28.017 4.45,-28.3 6.65,-27.7C8.883,-27.1 10.583,-25.783 11.75,-23.75C12.683,-22.15 13.033,-20.45 12.8,-18.65L23.2,-15.85C24.167,-15.617 24.9,-15.05 25.4,-14.15C25.867,-13.35 25.967,-12.467 25.7,-11.5" style="fill:white;fill-rule:nonzero;"/>
                    </g>
                </g>
            </g>
        </g>
    </g>
</svg>
