<?xml version="1.0" encoding="UTF-8" standalone="no"?>
<!DOCTYPE svg PUBLIC "-//W3C//DTD SVG 1.1//EN" "http://www.w3.org/Graphics/SVG/1.1/DTD/svg11.dtd">
<svg width="100%" height="100%" viewBox="0 0 64 64" version="1.1" xmlns="http://www.w3.org/2000/svg" xmlns:xlink="http://www.w3.org/1999/xlink" xml:space="preserve" xmlns:serif="http://www.serif.com/" style="fill-rule:evenodd;clip-rule:evenodd;stroke-linejoin:round;stroke-miterlimit:2;">
    <g transform="matrix(0.808309,0,0,0.808309,-109.340886,-765.479086)">
        <g transform="matrix(0.940698,0,0,0.940698,175.001171,986.722526)">
            <path d="M13,-13.1C13,-9.533 11.7,-6.5 9.1,-4L8.45,-3.35L9.25,-1.8C11.717,3.7 12.967,10.367 13,18.2L13,18.35C13,20.45 11.75,22.25 9.25,23.75C6.717,25.25 3.633,26 0,26C-3.567,26 -6.617,25.25 -9.15,23.75C-11.717,22.25 -13,20.45 -13,18.35L-13,18.2C-12.967,10.367 -11.683,3.7 -9.15,-1.8L-8.4,-3.3L-9.15,-4C-11.717,-6.5 -13,-9.533 -13,-13.1C-13,-16.7 -11.717,-19.75 -9.15,-22.25C-6.617,-24.75 -3.567,-26 0,-26C3.567,-26 6.6,-24.75 9.1,-22.25C11.7,-19.75 13,-16.7 13,-13.1M32,-6.05C32,-3.85 31.2,-1.983 29.6,-0.45L29.2,-0.05L29.7,0.9C31.2,4.3 31.967,8.4 32,13.2L32,13.3C32,14.6 31.233,15.7 29.7,16.6C28.133,17.533 26.233,18 24,18C21.8,18 19.917,17.533 18.35,16.6C16.783,15.7 16,14.6 16,13.3L16,13.2C16.033,8.4 16.817,4.3 18.35,0.9L18.85,0L18.35,-0.45C16.783,-1.983 16,-3.85 16,-6.05C16,-8.283 16.783,-10.167 18.35,-11.7C19.917,-13.233 21.8,-14 24,-14C26.2,-14 28.067,-13.233 29.6,-11.7C31.2,-10.167 32,-8.283 32,-6.05M-16,-6.05C-16,-3.85 -16.8,-1.983 -18.4,-0.45L-18.8,-0.05L-18.3,0.9C-16.8,4.3 -16.033,8.4 -16,13.2L-16,13.3C-16,14.6 -16.767,15.7 -18.3,16.6C-19.867,17.533 -21.767,18 -24,18C-26.2,18 -28.083,17.533 -29.65,16.6C-31.217,15.7 -32,14.6 -32,13.3L-32,13.2C-31.967,8.4 -31.183,4.3 -29.65,0.9L-29.15,0L-29.65,-0.45C-31.217,-1.983 -32,-3.85 -32,-6.05C-32,-8.283 -31.217,-10.167 -29.65,-11.7C-28.083,-13.233 -26.2,-14 -24,-14C-21.8,-14 -19.933,-13.233 -18.4,-11.7C-16.8,-10.167 -16,-8.283 -16,-6.05" style="fill:none;fill-rule:nonzero;stroke:rgb(71,118,101);stroke-width:16.44px;"/>
        </g>
        <g transform="matrix(0.014108,0,0,0.014108,174.987191,986.738696)">
            <g transform="matrix(1,0,0,1,-2133.333333,-2133.333333)">
                <clipPath id="_clip1">
                    <rect x="0" y="0" width="4266.667" height="4266.667"/>
                </clipPath>
                <g clip-path="url(#_clip1)">
                    <g transform="matrix(66.666667,0,0,66.666667,2133.333333,2133.333333)">
                        <path d="M13,-13.1C13,-9.533 11.7,-6.5 9.1,-4L8.45,-3.35L9.25,-1.8C11.717,3.7 12.967,10.367 13,18.2L13,18.35C13,20.45 11.75,22.25 9.25,23.75C6.717,25.25 3.633,26 0,26C-3.567,26 -6.617,25.25 -9.15,23.75C-11.717,22.25 -13,20.45 -13,18.35L-13,18.2C-12.967,10.367 -11.683,3.7 -9.15,-1.8L-8.4,-3.3L-9.15,-4C-11.717,-6.5 -13,-9.533 -13,-13.1C-13,-16.7 -11.717,-19.75 -9.15,-22.25C-6.617,-24.75 -3.567,-26 0,-26C3.567,-26 6.6,-24.75 9.1,-22.25C11.7,-19.75 13,-16.7 13,-13.1M32,-6.05C32,-3.85 31.2,-1.983 29.6,-0.45L29.2,-0.05L29.7,0.9C31.2,4.3 31.967,8.4 32,13.2L32,13.3C32,14.6 31.233,15.7 29.7,16.6C28.133,17.533 26.233,18 24,18C21.8,18 19.917,17.533 18.35,16.6C16.783,15.7 16,14.6 16,13.3L16,13.2C16.033,8.4 16.817,4.3 18.35,0.9L18.85,0L18.35,-0.45C16.783,-1.983 16,-3.85 16,-6.05C16,-8.283 16.783,-10.167 18.35,-11.7C19.917,-13.233 21.8,-14 24,-14C26.2,-14 28.067,-13.233 29.6,-11.7C31.2,-10.167 32,-8.283 32,-6.05M-16,-6.05C-16,-3.85 -16.8,-1.983 -18.4,-0.45L-18.8,-0.05L-18.3,0.9C-16.8,4.3 -16.033,8.4 -16,13.2L-16,13.3C-16,14.6 -16.767,15.7 -18.3,16.6C-19.867,17.533 -21.767,18 -24,18C-26.2,18 -28.083,17.533 -29.65,16.6C-31.217,15.7 -32,14.6 -32,13.3L-32,13.2C-31.967,8.4 -31.183,4.3 -29.65,0.9L-29.15,0L-29.65,-0.45C-31.217,-1.983 -32,-3.85 -32,-6.05C-32,-8.283 -31.217,-10.167 -29.65,-11.7C-28.083,-13.233 -26.2,-14 -24,-14C-21.8,-14 -19.933,-13.233 -18.4,-11.7C-16.8,-10.167 -16,-8.283 -16,-6.05" style="fill:white;fill-rule:nonzero;"/>
                    </g>
                </g>
            </g>
        </g>
    </g>
</svg>
