<?xml version="1.0" encoding="UTF-8" standalone="no"?>
<!DOCTYPE svg PUBLIC "-//W3C//DTD SVG 1.1//EN" "http://www.w3.org/Graphics/SVG/1.1/DTD/svg11.dtd">
<svg width="100%" height="100%" viewBox="0 0 64 64" version="1.1" xmlns="http://www.w3.org/2000/svg" xmlns:xlink="http://www.w3.org/1999/xlink" xml:space="preserve" xmlns:serif="http://www.serif.com/" style="fill-rule:evenodd;clip-rule:evenodd;stroke-linejoin:round;stroke-miterlimit:2;">
    <g transform="matrix(0.808309,0,0,0.808309,-109.333406,-765.492577)">
        <g transform="matrix(1.114902,0,0,1.114902,174.987191,986.767547)">
            <path d="M-11.8,-0.65C-15.7,-5.283 -17.767,-11.067 -18,-18C-18,-18.3 -18.1,-18.533 -18.3,-18.7C-18.5,-18.9 -18.733,-19 -19,-19L-20.1,-19L-20.7,-19.25L-21,-20L-21,-26L-20.7,-26.65L-20.65,-26.7L-20,-27L20,-27L20.75,-26.7L21,-26L21,-20L20.8,-19.25L20.75,-19.2L20.1,-19L19,-19C18.733,-19 18.5,-18.9 18.3,-18.7C18.1,-18.533 18,-18.3 18,-18C17.767,-11.067 15.717,-5.283 11.85,-0.65L11.6,0L11.85,0.65C15.717,5.283 17.767,11.083 18,18.05C18,18.317 18.1,18.55 18.3,18.75L19,19L20.1,19L20.75,19.3L21,20L21,26L20.8,26.75L20.75,26.8L20,27L-20,27L-20.7,26.75L-21,26L-21,20L-20.7,19.35L-20.65,19.3C-20.517,19.1 -20.333,19 -20.1,19L-19,19L-18.3,18.75C-18.1,18.55 -18,18.317 -18,18.05C-17.767,11.083 -15.7,5.283 -11.8,0.65L-11.6,0L-11.8,-0.65M4.15,-0.8C4.283,-1.367 4.567,-1.817 5,-2.15L5.2,-2.4C9.467,-6.333 11.733,-11.517 12,-17.95L11.9,-18.45L11.5,-18.85L11,-19L-10.95,-19L-11.45,-18.85L-11.8,-18.45L-11.95,-17.95C-11.717,-11.45 -9.417,-6.233 -5.05,-2.3L-4.95,-2.2C-4.55,-1.833 -4.267,-1.367 -4.1,-0.8L-4,0L-4.1,0.85L-4.15,1.05L-4.8,2.1L-5,2.25C-9.4,6.183 -11.717,11.433 -11.95,18L-11.8,18.5L-11.45,18.85L-10.95,19L11,19L11.5,18.85L11.9,18.5L12,17.95C11.733,11.417 9.417,6.183 5.05,2.25C4.617,1.883 4.317,1.483 4.15,1.05L4.15,0.85L4,0C4,-0.267 4.05,-0.533 4.15,-0.8M-4,-10L4,-10C4.567,-10 5.05,-9.8 5.45,-9.4C5.817,-9.033 6,-8.567 6,-8C6,-7.433 5.817,-6.95 5.45,-6.55L1.45,-2.55C1.05,-2.183 0.567,-2 0,-2C-0.567,-2 -1.033,-2.183 -1.4,-2.55L-5.4,-6.55C-5.8,-6.95 -6,-7.433 -6,-8C-6,-8.567 -5.8,-9.033 -5.4,-9.4C-5.033,-9.8 -4.567,-10 -4,-10M-8.6,16C-7.933,11.9 -6.267,8.467 -3.6,5.7L-3.25,5.4C-2.55,4.667 -2.017,3.867 -1.65,3L1.65,3C2.017,3.867 2.567,4.667 3.3,5.4L3.35,5.4L3.35,5.45C6.183,8.217 7.95,11.733 8.65,16L-8.6,16" style="fill:none;fill-rule:nonzero;stroke:rgb(46,77,62);stroke-width:13.87px;"/>
        </g>
        <g transform="matrix(0.014108,0,0,0.014108,174.987191,986.738696)">
            <g transform="matrix(1,0,0,1,-2133.333333,-2133.333333)">
                <clipPath id="_clip1">
                    <rect x="0" y="0" width="4266.667" height="4266.667"/>
                </clipPath>
                <g clip-path="url(#_clip1)">
                    <g transform="matrix(79.012346,0,0,79.012346,2133.333333,2133.333333)">
                        <path d="M-11.8,-0.65C-15.7,-5.283 -17.767,-11.067 -18,-18C-18,-18.3 -18.1,-18.533 -18.3,-18.7C-18.5,-18.9 -18.733,-19 -19,-19L-20.1,-19L-20.7,-19.25L-21,-20L-21,-26L-20.7,-26.65L-20.65,-26.7L-20,-27L20,-27L20.75,-26.7L21,-26L21,-20L20.8,-19.25L20.75,-19.2L20.1,-19L19,-19C18.733,-19 18.5,-18.9 18.3,-18.7C18.1,-18.533 18,-18.3 18,-18C17.767,-11.067 15.717,-5.283 11.85,-0.65L11.6,0L11.85,0.65C15.717,5.283 17.767,11.083 18,18.05C18,18.317 18.1,18.55 18.3,18.75L19,19L20.1,19L20.75,19.3L21,20L21,26L20.8,26.75L20.75,26.8L20,27L-20,27L-20.7,26.75L-21,26L-21,20L-20.7,19.35L-20.65,19.3C-20.517,19.1 -20.333,19 -20.1,19L-19,19L-18.3,18.75C-18.1,18.55 -18,18.317 -18,18.05C-17.767,11.083 -15.7,5.283 -11.8,0.65L-11.6,0L-11.8,-0.65M4.15,-0.8C4.283,-1.367 4.567,-1.817 5,-2.15L5.2,-2.4C9.467,-6.333 11.733,-11.517 12,-17.95L11.9,-18.45L11.5,-18.85L11,-19L-10.95,-19L-11.45,-18.85L-11.8,-18.45L-11.95,-17.95C-11.717,-11.45 -9.417,-6.233 -5.05,-2.3L-4.95,-2.2C-4.55,-1.833 -4.267,-1.367 -4.1,-0.8L-4,0L-4.1,0.85L-4.15,1.05L-4.8,2.1L-5,2.25C-9.4,6.183 -11.717,11.433 -11.95,18L-11.8,18.5L-11.45,18.85L-10.95,19L11,19L11.5,18.85L11.9,18.5L12,17.95C11.733,11.417 9.417,6.183 5.05,2.25C4.617,1.883 4.317,1.483 4.15,1.05L4.15,0.85L4,0C4,-0.267 4.05,-0.533 4.15,-0.8M-4,-10L4,-10C4.567,-10 5.05,-9.8 5.45,-9.4C5.817,-9.033 6,-8.567 6,-8C6,-7.433 5.817,-6.95 5.45,-6.55L1.45,-2.55C1.05,-2.183 0.567,-2 0,-2C-0.567,-2 -1.033,-2.183 -1.4,-2.55L-5.4,-6.55C-5.8,-6.95 -6,-7.433 -6,-8C-6,-8.567 -5.8,-9.033 -5.4,-9.4C-5.033,-9.8 -4.567,-10 -4,-10M-8.6,16C-7.933,11.9 -6.267,8.467 -3.6,5.7L-3.25,5.4C-2.55,4.667 -2.017,3.867 -1.65,3L1.65,3C2.017,3.867 2.567,4.667 3.3,5.4L3.35,5.4L3.35,5.45C6.183,8.217 7.95,11.733 8.65,16L-8.6,16" style="fill:white;fill-rule:nonzero;"/>
                    </g>
                </g>
            </g>
        </g>
    </g>
</svg>
