<?xml version="1.0" encoding="UTF-8" standalone="no"?>
<!DOCTYPE svg PUBLIC "-//W3C//DTD SVG 1.1//EN" "http://www.w3.org/Graphics/SVG/1.1/DTD/svg11.dtd">
<svg width="100%" height="100%" viewBox="0 0 38 38" version="1.1" xmlns="http://www.w3.org/2000/svg" xmlns:xlink="http://www.w3.org/1999/xlink" xml:space="preserve" xmlns:serif="http://www.serif.com/" style="fill-rule:evenodd;clip-rule:evenodd;stroke-linejoin:round;stroke-miterlimit:2;">
    <g transform="matrix(0.51507,0,0,0.51507,-71.131099,-489.265244)">
        <g transform="matrix(1.253873,0,0,1.253873,144.904475,956.75008)">
            <path d="M14.05,0.3C16.317,-0.167 18.617,-0.183 20.95,0.25L21.15,0.25C24.517,0.883 27.483,2.5 30.05,5.1L30.2,5.25C32.533,7.383 34.15,9.9 35.05,12.8L35.05,12.85L35.1,12.95C35.833,16.217 35.4,19.083 33.8,21.55L33.55,21.85L45.45,33.55L45.65,33.75C46.95,34.983 47.7,36.5 47.9,38.3L48,39.55C48,41.917 47.183,43.9 45.55,45.5L45.4,45.65C43.833,47.217 41.817,48 39.35,48C37.083,48 35.1,47.217 33.4,45.65L33.3,45.55L21.55,33.7L21.5,33.7C18.467,35.333 15.267,35.533 11.9,34.3L11.8,34.25C9.467,33.417 7.383,32.15 5.55,30.45L5.25,30.2C1.35,26.067 -0.383,21.45 0.05,16.35L0.25,14.8C0.317,14.333 0.533,13.933 0.9,13.6C1.267,13.3 1.683,13.167 2.15,13.2C2.617,13.233 3.033,13.417 3.4,13.75L11.4,21.85C12.367,22.783 13.317,23.267 14.25,23.3L14.35,23.3C15.283,23.267 16.183,22.783 17.05,21.85L21.5,17.3C22.8,15.967 23.167,14.567 22.6,13.1L22.5,12.9C22.267,12.433 21.917,11.95 21.45,11.45L13.15,3.5C12.783,3.133 12.583,2.717 12.55,2.25C12.517,1.783 12.65,1.367 12.95,1C13.217,0.6 13.583,0.367 14.05,0.3M43,38.95C43,37.85 42.6,36.9 41.8,36.1C41.067,35.333 40.133,34.95 39,34.95C37.9,34.95 36.95,35.333 36.15,36.1C35.383,36.9 35,37.85 35,38.95C35,40.083 35.383,41.017 36.15,41.75C36.95,42.55 37.9,42.95 39,42.95C40.133,42.95 41.067,42.55 41.8,41.75C42.6,41.017 43,40.083 43,38.95" style="fill:none;fill-rule:nonzero;stroke:rgb(77,112,127);stroke-width:8px;"/>
        </g>
        <g transform="matrix(0.300978,0,0,0.300978,174.987191,986.738696)">
            <g transform="matrix(1,0,0,1,-100,-100)">
                <clipPath id="_clip1">
                    <rect x="0" y="0" width="200" height="200"/>
                </clipPath>
                <g clip-path="url(#_clip1)">
                    <g transform="matrix(4.166667,0,0,4.166667,0,0)">
                        <path d="M14.05,0.3C16.317,-0.167 18.617,-0.183 20.95,0.25L21.15,0.25C24.517,0.883 27.483,2.5 30.05,5.1L30.2,5.25C32.533,7.383 34.15,9.9 35.05,12.8L35.05,12.85L35.1,12.95C35.833,16.217 35.4,19.083 33.8,21.55L33.55,21.85L45.45,33.55L45.65,33.75C46.95,34.983 47.7,36.5 47.9,38.3L48,39.55C48,41.917 47.183,43.9 45.55,45.5L45.4,45.65C43.833,47.217 41.817,48 39.35,48C37.083,48 35.1,47.217 33.4,45.65L33.3,45.55L21.55,33.7L21.5,33.7C18.467,35.333 15.267,35.533 11.9,34.3L11.8,34.25C9.467,33.417 7.383,32.15 5.55,30.45L5.25,30.2C1.35,26.067 -0.383,21.45 0.05,16.35L0.25,14.8C0.317,14.333 0.533,13.933 0.9,13.6C1.267,13.3 1.683,13.167 2.15,13.2C2.617,13.233 3.033,13.417 3.4,13.75L11.4,21.85C12.367,22.783 13.317,23.267 14.25,23.3L14.35,23.3C15.283,23.267 16.183,22.783 17.05,21.85L21.5,17.3C22.8,15.967 23.167,14.567 22.6,13.1L22.5,12.9C22.267,12.433 21.917,11.95 21.45,11.45L13.15,3.5C12.783,3.133 12.583,2.717 12.55,2.25C12.517,1.783 12.65,1.367 12.95,1C13.217,0.6 13.583,0.367 14.05,0.3M43,38.95C43,37.85 42.6,36.9 41.8,36.1C41.067,35.333 40.133,34.95 39,34.95C37.9,34.95 36.95,35.333 36.15,36.1C35.383,36.9 35,37.85 35,38.95C35,40.083 35.383,41.017 36.15,41.75C36.95,42.55 37.9,42.95 39,42.95C40.133,42.95 41.067,42.55 41.8,41.75C42.6,41.017 43,40.083 43,38.95" style="fill:white;fill-rule:nonzero;"/>
                    </g>
                </g>
            </g>
        </g>
    </g>
</svg>
